<svg aria-hidden="true" style="width:0;height:0;position:absolute;overflow:hidden" xmlns="http://www.w3.org/2000/svg"><defs><symbol id="icon-close" viewBox="0 0 32 32"><path fill="#4c00fe" style="fill:var(--color1,#4c00fe)" d="M1.646 32a1.646 1.646 0 0 1-1.163-2.811L29.19.482a1.646 1.646 0 1 1 2.328 2.329L2.811 31.517A1.65 1.65 0 0 1 1.646 32z"/><path fill="#4c00fe" style="fill:var(--color1,#4c00fe)" d="M30.355 32c-.421 0-.843-.16-1.163-.483L.483 2.811A1.647 1.647 0 0 1 2.812.482l28.707 28.707A1.646 1.646 0 0 1 30.356 32z"/></symbol><symbol id="icon-magnifying" viewBox="0 0 32 32"><path fill="#939393" style="fill:var(--color2,#939393)" d="M4.026 4.026A13.615 13.615 0 0 1 13.709 0h.04-.002c3.671 0 7.124 1.43 9.72 4.026a13.613 13.613 0 0 1 4.029 9.686v.037-.002.035c0 3.455-1.284 6.611-3.402 9.015l.013-.015 7.637 7.634a.94.94 0 0 1-1.329 1.329l-7.634-7.634a13.58 13.58 0 0 1-8.994 3.383h-.043.002-.035a13.611 13.611 0 0 1-9.682-4.026l-.001-.001a13.613 13.613 0 0 1-4.029-9.686v-.037.002c0-3.671 1.43-7.124 4.026-9.72zm1.329 18.115c2.149 2.144 5.116 3.47 8.392 3.47s6.242-1.326 8.392-3.47c2.145-2.149 3.471-5.116 3.471-8.393s-1.326-6.244-3.472-8.393a11.793 11.793 0 0 0-8.372-3.471h-.018.001-.021a11.795 11.795 0 0 0-8.37 3.469c-2.146 2.149-3.473 5.117-3.473 8.394s1.327 6.245 3.473 8.395z"/></symbol><symbol id="icon-mapMark" viewBox="0 0 21 32"><path fill="#fff" style="fill:var(--color3,#fff)" d="M10.685 0C4.798 0 .008 4.993.008 11.133c0 7.716 10.688 20.899 10.688 20.899s10.666-13.56 10.666-20.899C21.362 4.994 16.572 0 10.685 0zm3.221 14.393a4.453 4.453 0 0 1-3.221 1.388 4.436 4.436 0 0 1-3.219-1.386l-.002-.002c-1.779-1.851-1.779-4.865 0-6.716.81-.855 1.953-1.386 3.221-1.386s2.411.532 3.219 1.384l.002.002c1.78 1.851 1.78 4.865 0 6.716z"/></symbol><symbol id="icon-search" viewBox="0 0 52 32"><path fill="#939393" style="fill:var(--color2,#939393)" d="M26.013 32.027.02 2.012h51.986L26.013 32.027z"/></symbol><symbol id="icon-ticket" viewBox="0 0 45 32"><path d="M5.02 1.572H0V31.69h5.02V1.572zm12.626 0h-5.02V31.69h5.02V1.572zm7.604 0h-5.018V31.69h5.018V1.572zm19.928 0h-7.454V31.69h7.454V1.572zm-35.139 0H7.605V31.69h2.434V1.572zm20.079 0h-2.434V31.69h2.434V1.572zm5.021 0h-2.434V31.69h2.434V1.572z"/></symbol></defs></svg>