<svg aria-hidden="true" style="position: absolute; width: 0; height: 0; overflow: hidden;" version="1.1" xmlns="http://www.w3.org/2000/svg" xmlns:xlink="http://www.w3.org/1999/xlink">
<defs>
<symbol id="icon-close" viewBox="0 0 32 32">
<path fill="#4c00fe" style="fill: var(--color1, #4c00fe)" d="M1.646 32c-0.422 0-0.843-0.16-1.163-0.483-0.643-0.643-0.643-1.685 0-2.328l28.707-28.707c0.643-0.643 1.685-0.643 2.328 0s0.643 1.685 0 2.329l-28.707 28.706c-0.323 0.321-0.744 0.483-1.165 0.483v0z"></path>
<path fill="#4c00fe" style="fill: var(--color1, #4c00fe)" d="M30.355 32c-0.421 0-0.843-0.16-1.163-0.483l-28.709-28.706c-0.643-0.643-0.643-1.686 0-2.329s1.685-0.643 2.329 0l28.707 28.707c0.643 0.643 0.643 1.685 0 2.328-0.323 0.321-0.744 0.483-1.163 0.483z"></path>
</symbol>
<symbol id="icon-magnifying" viewBox="0 0 32 32">
<path fill="#939393" style="fill: var(--color2, #939393)" d="M4.026 4.026c2.474-2.487 5.899-4.026 9.683-4.026 0.013 0 0.026 0 0.040 0h-0.002c3.671 0 7.124 1.43 9.72 4.026 2.489 2.474 4.029 5.9 4.029 9.686 0 0.012-0 0.025-0 0.037v-0.002c0 0.010 0 0.023 0 0.035 0 3.455-1.284 6.611-3.402 9.015l0.013-0.015 7.637 7.634c0.17 0.17 0.275 0.405 0.275 0.664 0 0.519-0.421 0.94-0.94 0.94-0.259 0-0.494-0.105-0.664-0.275l-7.634-7.634c-2.388 2.101-5.541 3.383-8.994 3.383-0.014 0-0.029-0-0.043-0h0.002c-0.010 0-0.023 0-0.035 0-3.784 0-7.209-1.539-9.682-4.026l-0.001-0.001c-2.489-2.474-4.029-5.9-4.029-9.686 0-0.012 0-0.025 0-0.037v0.002c0-3.671 1.43-7.124 4.026-9.72zM5.355 22.141c2.149 2.144 5.116 3.47 8.392 3.47s6.242-1.326 8.392-3.47l-0 0c2.145-2.149 3.471-5.116 3.471-8.393s-1.326-6.244-3.472-8.393l0 0c-2.142-2.145-5.102-3.471-8.372-3.471-0.006 0-0.012 0-0.018 0h0.001c-0.006 0-0.014-0-0.021-0-3.269 0-6.229 1.326-8.37 3.469l-0 0c-2.146 2.149-3.473 5.117-3.473 8.394s1.327 6.245 3.473 8.395l-0-0z"></path>
</symbol>
<symbol id="icon-mapMark" viewBox="0 0 21 32">
<path fill="#fff" style="fill: var(--color3, #fff)" d="M10.685 0c-5.887 0-10.677 4.993-10.677 11.133 0 7.716 10.688 20.899 10.688 20.899s10.666-13.56 10.666-20.899c0-6.139-4.79-11.133-10.677-11.133zM13.906 14.393c-0.89 0.925-2.054 1.388-3.221 1.388-1.267-0.002-2.41-0.534-3.219-1.386l-0.002-0.002c-1.779-1.851-1.779-4.865 0-6.716 0.81-0.855 1.953-1.386 3.221-1.386s2.411 0.532 3.219 1.384l0.002 0.002c1.78 1.851 1.78 4.865 0 6.716z"></path>
</symbol>
<symbol id="icon-search" viewBox="0 0 52 32">
<path fill="#939393" style="fill: var(--color2, #939393)" d="M26.013 32.027l-25.993-30.015h51.986l-25.993 30.015z"></path>
</symbol>
<symbol id="icon-ticket" viewBox="0 0 45 32">
<path d="M5.020 1.572h-5.020v30.118h5.020v-30.118zM17.646 1.572h-5.020v30.118h5.020v-30.118zM25.25 1.572h-5.018v30.118h5.018v-30.118zM45.178 1.572h-7.454v30.118h7.454v-30.118zM10.039 1.572h-2.434v30.118h2.434v-30.118zM30.118 1.572h-2.434v30.118h2.434v-30.118zM35.139 1.572h-2.434v30.118h2.434v-30.118z"></path>
</symbol>
</defs>
</svg>
